<svg xmlns="http://www.w3.org/2000/svg" viewBox="0 0 960 720" role="img" aria-label="Tribina FK Posavina">
  <defs>
    <linearGradient id="bg" x1="0" x2="1" y1="0" y2="1">
      <stop offset="0" stop-color="#e0f2fe"/>
      <stop offset="1" stop-color="#fef3c7"/>
    </linearGradient>
  </defs>
  <rect width="960" height="720" fill="url(#bg)"/>
  <rect y="430" width="960" height="290" fill="#177e43"/>
  <rect x="70" y="190" width="820" height="260" rx="18" fill="#e5e7eb"/>
  <path d="M90 245h780M90 310h780M90 375h780" stroke="#cbd5e1" stroke-width="18"/>
  <g fill="#b31217">
    <circle cx="150" cy="230" r="22"/><circle cx="218" cy="230" r="22"/><circle cx="286" cy="230" r="22"/>
    <circle cx="354" cy="230" r="22"/><circle cx="422" cy="230" r="22"/><circle cx="490" cy="230" r="22"/>
    <circle cx="558" cy="230" r="22"/><circle cx="626" cy="230" r="22"/><circle cx="694" cy="230" r="22"/>
    <circle cx="762" cy="230" r="22"/>
  </g>
  <g fill="#111827">
    <circle cx="180" cy="300" r="22"/><circle cx="248" cy="300" r="22"/><circle cx="316" cy="300" r="22"/>
    <circle cx="384" cy="300" r="22"/><circle cx="452" cy="300" r="22"/><circle cx="520" cy="300" r="22"/>
    <circle cx="588" cy="300" r="22"/><circle cx="656" cy="300" r="22"/><circle cx="724" cy="300" r="22"/>
  </g>
  <rect x="250" y="80" width="460" height="72" rx="10" fill="#111827"/>
  <text x="480" y="127" text-anchor="middle" fill="#fff" font-family="Arial, sans-serif" font-size="34" font-weight="900">NAPRIJED POSAVINA</text>
  <path d="M120 560h720" stroke="#fff" stroke-width="7" opacity=".45"/>
</svg>
